<svg xmlns="http://www.w3.org/2000/svg"
        height="24dp" viewBox="0 0 1200 1200"
        width="24dp" >
    <path fill="#c9c4c2"
          d="M200,140L1000,140A100,100 0,0 1,1100 240L1100,1040A100,100 0,0 1,1000 1140L200,1140A100,100 0,0 1,100 1040L100,240A100,100 0,0 1,200 140z"
          strokeColor="#474747" strokeWidth="8"/>
    <path fill="#dedcdb"
          d="M200,123L1000,123A100,100 0,0 1,1100 223L1100,1023A100,100 0,0 1,1000 1123L200,1123A100,100 0,0 1,100 1023L100,223A100,100 0,0 1,200 123z"
          strokeColor="#474747" strokeWidth="8"/>
    <path fill="#ffffff"
          d="M200,100L1000,100A100,100 0,0 1,1100 200L1100,1000A100,100 0,0 1,1000 1100L200,1100A100,100 0,0 1,100 1000L100,200A100,100 0,0 1,200 100z"
          strokeColor="#474747" strokeWidth="8"/>
    <path fill="#4E69B8"
          d="M200,100L1000,100A100,100 0,0 1,1100 200L1100,300A100,100 0,0 1,1000 400L200,400A100,100 0,0 1,100 300L100,200A100,100 0,0 1,200 100z"
          strokeColor="#474747" strokeWidth="8"/>
    <path fill="#4E69B8"
          d="M100,300h1000v100h-1000z"
          strokeColor="#474747" strokeWidth="8"/>
    <path fill="#FF000000"
          d="M104,304L1096,304"
          strokeColor="#4E69B8" strokeWidth="20"/>
    <path fill="#304166"
          d="M360,200m-45,0a45,45 0,1 1,90 0a45,45 0,1 1,-90 0"
          strokeColor="#2b3a59" strokeWidth="10"/>
    <path fill="#304166"
          d="M835,200m-45,0a45,45 0,1 1,90 0a45,45 0,1 1,-90 0"
          strokeColor="#2b3a59" strokeWidth="10"/>
    <path fill="#474747"
          d="M335,25L385,25A10,10 0,0 1,395 35L395,190A10,10 0,0 1,385 200L335,200A10,10 0,0 1,325 190L325,35A10,10 0,0 1,335 25z"
          strokeColor="#373737" strokeWidth="10"/>
    <path fill="#474747"
          d="M810,25L860,25A10,10 0,0 1,870 35L870,190A10,10 0,0 1,860 200L810,200A10,10 0,0 1,800 190L800,35A10,10 0,0 1,810 25z"
          strokeColor="#373737" strokeWidth="10"/>
    <path fill="#000000"
          d="m236.2,808.9 l749.9,0 -27,27 -695.8,0 -27,-27z" strokeColor="#00000000"/>
    <path fill="#000000"
          d="m263.2,849.3 l695.8,0 -25.1,27 -645.7,0 -25.1,-27z" strokeColor="#00000000"/>
    <path fill="#000000"
          d="m290.3,889.7 l641.8,0 -23.2,27 -595.5,0 -23.2,-27z" strokeColor="#00000000"/>
    <path fill="#000000"
          d="M834.1,1065.8 L459.1,418l36.9,9.9 347.9,601.2 -9.9,36.8z" strokeColor="#00000000"/>
    <path fill="#000000"
          d="M855.8,1022.3 L507.8,421.1l36,8.3 322.8,557.8 -10.9,35.1z" strokeColor="#00000000"/>
    <path fill="#000000"
          d="M877.3,978.8 L556.4,424l35,6.6 297.7,514.6 -11.8,33.5z" strokeColor="#00000000"/>
    <path fill="#000000"
          d="M763.2,418 L388.3,1065.8 378.4,1029.1 726.2,428 763.2,418Z" strokeColor="#00000000"/>
    <path fill="#000000"
          d="M714.5,421.1 L366.6,1022.3 355.8,987.2 678.6,429.3 714.5,421.1Z" strokeColor="#00000000"/>
    <path fill="#000000"
          d="M665.9,424.2 L345,978.8 333.2,945.2 630.9,430.7 665.9,424.2Z" strokeColor="#00000000"/>
    <path fill="#6080c0"
          d="m572.7,626.4 l2.2,-98.7 72.6,0.7 2.9,96.6 97.6,1.4 0,73.9 -99.1,4.3 -0.7,272.9 -73.3,0 -2.9,-274.4 -98.3,-2.2 0,-72.5z" strokeColor="#00000000"/>
    <path fill="#486090"
          d="m763.2,614.3 l0,101.1 -101.4,0 0,276.3 -101.3,0 1.1,-27 73.1,0 0,-276.3 101.4,0 0,-73.9z" strokeColor="#00000000"/>
    <path fill="#7298e4"
          d="m763.2,614.3 l-126.4,0 -2,27 101.4,0z" strokeColor="#00000000"/>
    <path fill="#486090"
          d="m661.8,614.3 l0,-101.1 -27,1.1 0,127z" strokeColor="#00000000"/>
    <path fill="#7298e4"
          d="m661.8,513.2 l-101.3,0 0,101.1 -101.4,0 0,101.1 27,-1.1 0,-73 101.4,0 0,-101.1 47.2,0z" strokeColor="#00000000"/>
    <path fill="#486090"
          d="m459.1,715.4 l126.4,0 2,-27 -101.4,0z" strokeColor="#00000000"/>
    <path fill="#7298e4"
          d="m560.5,715.4 l0,276.3 27,-27 0,-276.3 -27,27z" strokeColor="#00000000"/>
</svg>
